<?xml version="1.0" encoding="UTF-8" standalone="no"?> <svg width="512" height="512" viewBox="0 0 512 512" fill="none" xmlns="http://www.w3.org/2000/svg">
<path d="M256 15.9999C208.532 15.9998 162.131 30.0754 122.663 56.447C83.1947 82.8185 52.4332 120.301 34.2681 164.156C16.103 208.01 11.3502 256.266 20.6107 302.822C29.8712 349.377 52.7291 392.141 86.2939 425.706C131.303 470.715 192.348 496 256 496C319.652 496 380.697 470.715 425.706 425.706C470.715 380.697 496 319.652 496 256C496 192.348 470.715 131.303 425.706 86.2939C403.472 63.9381 377.024 46.2143 347.894 34.1483C318.764 22.0824 287.53 15.9139 256 15.9999V15.9999ZM414.392 414.392C372.384 456.4 315.408 480 256 480C196.591 480 139.616 456.4 97.6079 414.392C55.5997 372.384 31.9998 315.408 31.9998 256C31.9998 196.591 55.5997 139.616 97.6079 97.6079C139.616 55.5997 196.591 31.9998 256 31.9998C315.408 31.9998 372.384 55.5997 414.392 97.6079C456.4 139.616 480 196.591 480 256C480 315.408 456.4 372.384 414.392 414.392V414.392Z" fill="black"/>
<path d="M312 392C309.878 392 307.843 392.843 306.343 394.343C304.843 395.843 304 397.878 304 400V408C304 410.122 304.843 412.157 306.343 413.657C307.843 415.157 309.878 416 312 416C314.122 416 316.157 415.157 317.657 413.657C319.157 412.157 320 410.122 320 408V400C320 397.878 319.157 395.843 317.657 394.343C316.157 392.843 314.122 392 312 392Z" fill="black"/>
<path d="M296 376H288C285.878 376 283.843 376.843 282.343 378.343C280.843 379.843 280 381.878 280 384C280 386.122 280.843 388.157 282.343 389.657C283.843 391.157 285.878 392 288 392H296C298.122 392 300.157 391.157 301.657 389.657C303.157 388.157 304 386.122 304 384C304 381.878 303.157 379.843 301.657 378.343C300.157 376.843 298.122 376 296 376Z" fill="black"/>
<path d="M384.653 297.222C378.787 284.11 368.105 273.755 354.817 268.298C341.53 262.842 326.653 262.701 313.265 267.906C299.876 273.111 289.001 283.263 282.888 296.262C276.776 309.261 275.893 324.112 280.424 337.743C273.288 342.618 267.378 349.079 263.155 356.619C258.933 364.159 256.513 372.575 256.084 381.206C255.656 389.837 257.231 398.451 260.687 406.372C264.142 414.293 269.384 421.307 276.002 426.865C282.62 432.423 290.434 436.373 298.833 438.408C307.232 440.442 315.988 440.505 324.416 438.591C332.843 436.678 340.714 432.839 347.411 427.377C354.107 421.915 359.449 414.977 363.018 407.106C377.518 409.8 392.496 406.666 404.699 398.383C416.902 390.1 425.344 377.337 428.193 362.867C431.042 348.396 428.068 333.386 419.916 321.095C411.764 308.804 399.092 300.226 384.653 297.222V297.222ZM333.564 280.113C341.475 280.113 349.209 282.459 355.787 286.854C362.365 291.25 367.492 297.497 370.519 304.806C373.547 312.115 374.339 320.158 372.795 327.917C371.252 335.676 367.442 342.803 361.848 348.397C356.254 353.992 349.127 357.801 341.368 359.345C333.608 360.888 325.566 360.096 318.257 357.068C310.948 354.041 304.7 348.914 300.305 342.336C295.91 335.758 293.564 328.024 293.564 320.113C293.576 309.508 297.794 299.341 305.293 291.842C312.792 284.343 322.959 280.125 333.564 280.113V280.113ZM312 424C303.635 424.002 295.48 421.381 288.683 416.505C281.886 411.63 276.788 404.746 274.109 396.821C271.429 388.897 271.301 380.332 273.744 372.332C276.187 364.332 281.077 357.299 287.726 352.223C292.065 358.4 297.599 363.643 304 367.642V368C303.999 369.569 304.459 371.103 305.324 372.412C306.189 373.721 307.419 374.747 308.863 375.361C310.306 375.976 311.898 376.152 313.441 375.868C314.984 375.584 316.409 374.852 317.539 373.764C319.148 374.246 320.783 374.664 322.448 375.001C322.803 375.793 323.176 376.574 323.566 377.343C322.137 378.295 321.053 379.682 320.473 381.298C319.893 382.914 319.848 384.673 320.345 386.317C320.843 387.96 321.855 389.4 323.234 390.423C324.612 391.447 326.283 392 328 392H334.259C338.262 395.936 342.831 399.25 347.816 401.832C344.491 408.486 339.379 414.084 333.054 417.999C326.729 421.914 319.439 423.992 312 424ZM373.564 392.113C367.242 392.111 361.01 390.612 355.379 387.739C349.747 384.866 344.876 380.701 341.164 375.583C350.083 374.365 358.574 371.002 365.908 365.783C365.677 366.539 365.56 367.324 365.56 368.114V376.114C365.56 378.236 366.403 380.271 367.903 381.771C369.403 383.271 371.438 384.114 373.56 384.114C375.682 384.114 377.717 383.271 379.217 381.771C380.717 380.271 381.56 378.236 381.56 376.114V368.114C381.564 366.985 381.329 365.867 380.868 364.836C380.408 363.804 379.734 362.882 378.89 362.131C378.047 361.38 377.053 360.817 375.975 360.479C374.898 360.141 373.76 360.036 372.639 360.171C377.996 354.966 382.254 348.738 385.16 341.858C388.067 334.977 389.563 327.583 389.56 320.114C389.56 318.501 389.476 316.914 389.342 315.331C397.805 318.968 404.754 325.413 409.017 333.579C413.28 341.745 414.595 351.131 412.74 360.154C410.886 369.177 405.975 377.283 398.837 383.106C391.699 388.928 382.771 392.11 373.56 392.114L373.564 392.113Z" fill="black"/>
<path d="M389.563 344.113C387.442 344.113 385.407 344.956 383.907 346.456C382.406 347.956 381.563 349.991 381.563 352.113C381.563 354.235 382.406 356.269 383.907 357.77C385.407 359.27 387.442 360.113 389.563 360.113H397.563C399.685 360.113 401.72 359.27 403.22 357.77C404.721 356.269 405.563 354.235 405.563 352.113C405.563 349.991 404.721 347.956 403.22 346.456C401.72 344.956 399.685 344.113 397.563 344.113H389.563Z" fill="black"/>
<path d="M333.563 312.113C335.685 312.113 337.72 311.27 339.22 309.77C340.721 308.269 341.563 306.235 341.563 304.113V296.113C341.563 293.991 340.721 291.956 339.22 290.456C337.72 288.956 335.685 288.113 333.563 288.113C331.442 288.113 329.407 288.956 327.907 290.456C326.406 291.956 325.563 293.991 325.563 296.113V304.113C325.563 306.235 326.406 308.269 327.907 309.77C329.407 311.27 331.442 312.113 333.563 312.113Z" fill="black"/>
<path d="M333.563 328.113C331.442 328.113 329.407 328.956 327.907 330.456C326.406 331.956 325.563 333.991 325.563 336.113V344.113C325.563 346.235 326.406 348.269 327.907 349.77C329.407 351.27 331.442 352.113 333.563 352.113C335.685 352.113 337.72 351.27 339.22 349.77C340.721 348.269 341.563 346.235 341.563 344.113V336.113C341.563 333.991 340.721 331.956 339.22 330.456C337.72 328.956 335.685 328.113 333.563 328.113Z" fill="black"/>
<path d="M317.563 328.113C319.685 328.113 321.72 327.27 323.22 325.77C324.721 324.269 325.563 322.235 325.563 320.113C325.563 317.991 324.721 315.956 323.22 314.456C321.72 312.956 319.685 312.113 317.563 312.113H309.563C307.442 312.113 305.407 312.956 303.907 314.456C302.406 315.956 301.563 317.991 301.563 320.113C301.563 322.235 302.406 324.269 303.907 325.77C305.407 327.27 307.442 328.113 309.563 328.113H317.563Z" fill="black"/>
<path d="M349.563 328.113H357.563C359.685 328.113 361.72 327.27 363.22 325.77C364.721 324.269 365.563 322.235 365.563 320.113C365.563 317.991 364.721 315.956 363.22 314.456C361.72 312.956 359.685 312.113 357.563 312.113H349.563C347.442 312.113 345.407 312.956 343.907 314.456C342.406 315.956 341.563 317.991 341.563 320.113C341.563 322.235 342.406 324.269 343.907 325.77C345.407 327.27 347.442 328.113 349.563 328.113Z" fill="black"/>
<path d="M240 376H144C141.878 376 139.843 376.843 138.343 378.343C136.843 379.843 136 381.878 136 384C136 398.852 141.9 413.096 152.402 423.598C162.904 434.1 177.148 440 192 440C206.852 440 221.096 434.1 231.598 423.598C242.1 413.096 248 398.852 248 384C248 381.878 247.157 379.843 245.657 378.343C244.157 376.843 242.122 376 240 376ZM192 424C182.782 423.989 173.85 420.8 166.71 414.97C159.569 409.141 154.657 401.029 152.8 392H163.052L160.841 396.422C160.361 397.363 160.073 398.389 159.992 399.442C159.911 400.494 160.039 401.553 160.369 402.556C160.699 403.559 161.224 404.486 161.914 405.285C162.604 406.084 163.446 406.739 164.39 407.211C165.334 407.683 166.363 407.964 167.416 408.037C168.469 408.11 169.527 407.973 170.527 407.635C171.527 407.298 172.451 406.765 173.245 406.069C174.038 405.373 174.686 404.526 175.151 403.578L180.944 392H184V400C184 402.122 184.843 404.157 186.343 405.657C187.843 407.157 189.878 408 192 408C194.122 408 196.157 407.157 197.657 405.657C199.157 404.157 200 402.122 200 400V392H203.056L208.845 403.578C209.31 404.526 209.958 405.373 210.751 406.069C211.545 406.765 212.469 407.298 213.469 407.635C214.469 407.973 215.527 408.11 216.58 408.037C217.633 407.964 218.662 407.683 219.606 407.211C220.55 406.739 221.392 406.084 222.082 405.285C222.772 404.486 223.297 403.559 223.627 402.556C223.957 401.553 224.085 400.494 224.004 399.442C223.923 398.389 223.635 397.363 223.155 396.422L220.944 392H231.2C229.343 401.029 224.431 409.141 217.29 414.97C210.15 420.8 201.218 423.989 192 424V424Z" fill="black"/>
<path d="M238.042 273.739C236.997 273.631 235.941 273.731 234.934 274.032C233.927 274.333 232.99 274.829 232.175 275.493L157.721 336.093C156.906 336.756 156.23 337.573 155.731 338.498C155.232 339.422 154.92 340.436 154.813 341.481C154.706 342.526 154.806 343.582 155.107 344.589C155.408 345.596 155.904 346.533 156.567 347.348C161.196 353.066 166.913 357.81 173.387 361.304C179.862 364.798 186.965 366.973 194.285 367.704C196.219 367.903 198.161 368.003 200.104 368.004C210.684 367.982 221.041 364.964 229.976 359.299C238.912 353.634 246.06 345.554 250.593 335.995C255.127 326.436 256.86 315.788 255.592 305.285C254.324 294.781 250.108 284.852 243.43 276.646C242.091 275.001 240.153 273.955 238.042 273.739ZM239.79 316.08C239.05 323.268 236.376 330.122 232.054 335.913C227.732 341.704 221.923 346.217 215.243 348.973C208.562 351.728 201.26 352.624 194.112 351.564C186.964 350.503 180.236 347.528 174.643 342.952L182.6 336.475L183.677 341.3C183.903 342.328 184.33 343.301 184.933 344.164C185.536 345.027 186.303 345.762 187.191 346.328C188.079 346.893 189.069 347.278 190.106 347.46C191.143 347.643 192.205 347.618 193.232 347.389C194.26 347.16 195.232 346.73 196.093 346.125C196.954 345.519 197.687 344.75 198.25 343.86C198.813 342.971 199.195 341.979 199.374 340.942C199.553 339.905 199.526 338.842 199.293 337.816L196.474 325.182L198.844 323.253L203.894 329.458C205.238 331.091 207.173 332.126 209.277 332.336C211.381 332.547 213.483 331.915 215.123 330.581C216.763 329.246 217.808 327.316 218.029 325.213C218.25 323.11 217.63 321.005 216.303 319.358L211.253 313.158L213.623 311.229L225.423 316.554C227.358 317.426 229.56 317.494 231.544 316.743C233.529 315.991 235.134 314.482 236.006 312.548C236.878 310.613 236.946 308.411 236.195 306.427C235.444 304.442 233.935 302.837 232 301.965L227.494 299.931L235.452 293.454C239.102 300.402 240.611 308.275 239.79 316.08V316.08Z" fill="black"/>
<path d="M141.481 354.232L150.563 341.204V341.198L178.011 301.828C178.612 300.966 179.037 299.994 179.263 298.968C179.488 297.942 179.509 296.881 179.324 295.847C179.14 294.813 178.753 293.825 178.187 292.94C177.62 292.055 176.885 291.291 176.023 290.69C169.992 286.455 163.184 283.452 155.989 281.853C148.795 280.255 141.356 280.092 134.098 281.374C126.841 282.657 119.908 285.359 113.697 289.326C107.486 293.294 102.119 298.448 97.9045 304.494C93.6897 310.54 90.7097 317.358 89.1354 324.557C87.5611 331.757 87.4234 339.197 88.7302 346.45C90.0371 353.703 92.7627 360.627 96.7509 366.824C100.739 373.022 105.911 378.371 111.971 382.566C112.833 383.167 113.805 383.592 114.831 383.817C115.857 384.043 116.918 384.064 117.952 383.879C118.986 383.695 119.974 383.308 120.859 382.742C121.744 382.176 122.508 381.441 123.109 380.579L141.431 354.298L141.481 354.232ZM126.304 334.032L132.867 338.607L131.119 341.113L118.311 339.241C117.271 339.089 116.212 339.144 115.193 339.401C114.174 339.659 113.216 340.115 112.374 340.743C110.672 342.011 109.544 343.904 109.237 346.004C108.931 348.104 109.471 350.24 110.74 351.941C112.008 353.643 113.9 354.771 116 355.078L120.893 355.793L115.029 364.203C108.677 357.522 104.827 348.853 104.13 339.662C103.433 330.47 105.931 321.319 111.203 313.757C116.475 306.196 124.196 300.686 133.062 298.161C141.928 295.636 151.393 296.25 159.858 299.9L154 308.306L151.636 303.962C151.14 303.029 150.463 302.204 149.646 301.534C148.829 300.864 147.887 300.363 146.874 300.059C145.862 299.756 144.8 299.655 143.749 299.764C142.698 299.874 141.679 300.19 140.751 300.695C139.823 301.2 139.004 301.884 138.341 302.707C137.679 303.531 137.186 304.477 136.892 305.492C136.597 306.507 136.507 307.57 136.626 308.62C136.744 309.67 137.07 310.686 137.583 311.61L143.77 322.98L142.022 325.487L135.459 320.912C134.598 320.302 133.624 319.87 132.595 319.638C131.565 319.407 130.5 319.381 129.461 319.563C128.422 319.745 127.429 320.13 126.539 320.697C125.649 321.265 124.88 322.002 124.277 322.868C123.674 323.734 123.247 324.71 123.023 325.741C122.798 326.772 122.78 327.837 122.969 328.875C123.158 329.913 123.55 330.904 124.123 331.79C124.697 332.676 125.44 333.439 126.309 334.037L126.304 334.032Z" fill="black"/>
<path d="M111.456 271.409C114.664 272.137 117.943 272.506 121.233 272.509C130.592 272.485 139.7 269.478 147.235 263.926C154.769 258.374 160.338 250.565 163.133 241.632C169.497 238.054 176.641 236.091 183.94 235.914C191.239 235.737 198.47 237.352 205 240.617C206.085 241.164 207.281 241.457 208.497 241.473C209.712 241.489 210.916 241.228 212.015 240.709C213.114 240.19 214.081 239.428 214.842 238.479C215.602 237.531 216.137 236.422 216.405 235.236L219.255 222.617L248.994 194.168C249.872 193.328 250.547 192.298 250.968 191.158C251.389 190.017 251.545 188.796 251.423 187.587C251.301 186.377 250.905 185.211 250.266 184.178C249.626 183.144 248.759 182.27 247.731 181.621C241.568 177.707 236.459 172.343 232.851 165.997C229.242 159.652 227.244 152.518 227.031 145.221C234.442 136.848 238.387 125.967 238.065 114.79C237.742 103.612 233.176 92.977 225.295 85.045C217.413 77.113 206.807 72.4795 195.632 72.0859C184.457 71.6923 173.551 75.5683 165.131 82.9261C158.68 81.1092 151.898 80.7901 145.305 81.9931C138.712 83.1961 132.48 85.8894 127.086 89.8676C121.692 93.8457 117.278 99.0035 114.182 104.947C111.085 110.891 109.387 117.464 109.217 124.164C102.086 129.964 96.9556 137.856 94.5508 146.728C87.2642 149.07 80.7144 153.272 75.548 158.919C70.3816 164.566 66.7774 171.462 65.0911 178.928C63.4048 186.394 63.6949 194.17 65.9325 201.489C68.1702 208.809 72.2781 215.418 77.8508 220.664C75.8325 231.824 78.2013 243.332 84.4629 252.788C90.7245 262.244 100.395 268.916 111.458 271.414L111.456 271.409ZM202.856 222.572C190.431 218.772 177.117 219.042 164.856 223.341C164.161 217.334 162.223 211.537 159.166 206.32C163.012 204.708 166.607 202.552 169.842 199.92C176.573 200.417 183.103 202.432 188.944 205.814C194.785 209.196 199.784 213.856 203.566 219.446L202.856 222.572ZM231.156 189.083L213.48 205.993C205.219 195.952 193.964 188.816 181.36 185.625C185.496 177.465 186.984 168.217 185.617 159.171C194.593 160.937 203.897 159.861 212.233 156.091C214.861 168.825 221.493 180.386 231.159 189.083H231.156ZM122.756 145.538C123.256 145.063 123.819 144.568 124.489 144.024C125.786 142.97 126.721 141.536 127.162 139.923C127.602 138.31 127.526 136.6 126.945 135.032C125.038 129.906 124.674 124.334 125.899 119.004C127.123 113.673 129.881 108.818 133.833 105.038C137.785 101.257 142.758 98.7167 148.137 97.7301C153.517 96.7436 159.067 97.354 164.104 99.4861C165.645 100.137 167.351 100.289 168.982 99.9206C170.614 99.5518 172.089 98.6808 173.2 97.4301C173.774 96.7851 174.293 96.2411 174.789 95.7671C180.159 90.7287 187.299 88.0089 194.661 88.1969C202.022 88.3848 209.014 91.4653 214.12 96.7712C219.227 102.077 222.038 109.181 221.944 116.545C221.85 123.908 218.859 130.938 213.619 136.112C213.544 136.182 213.469 136.252 213.396 136.325C209.445 140.071 204.487 142.583 199.129 143.554C193.772 144.525 188.248 143.912 183.234 141.791C181.694 141.141 179.989 140.99 178.358 141.358C176.727 141.727 175.253 142.598 174.143 143.847C173.569 144.492 173.049 145.036 172.557 145.508C172.065 145.98 171.491 146.479 170.819 147.025C169.522 148.079 168.588 149.514 168.148 151.126C167.708 152.738 167.783 154.448 168.365 156.015C170.126 160.752 170.572 165.876 169.656 170.846C168.74 175.815 166.497 180.444 163.163 184.242C159.83 188.04 155.531 190.865 150.722 192.417C145.914 193.97 140.775 194.192 135.85 193.061C130.925 191.929 126.398 189.486 122.749 185.99C119.1 182.494 116.466 178.076 115.124 173.205C113.783 168.333 113.785 163.189 115.13 158.318C116.475 153.447 119.113 149.031 122.765 145.538H122.756ZM80.6948 182.449C81.7207 177.909 83.8633 173.696 86.9283 170.193C89.9933 166.689 93.884 164.006 98.2478 162.386C98.1868 163.186 98.1408 163.986 98.1238 164.795C97.9917 170.639 99.0264 176.45 101.167 181.889C103.308 187.328 106.512 192.285 110.592 196.471C114.672 200.656 119.546 203.986 124.928 206.265C130.311 208.545 136.094 209.728 141.939 209.745C145.159 213.315 147.406 217.653 148.463 222.343C149.521 227.032 149.353 231.915 147.976 236.521C146.598 241.127 144.059 245.301 140.601 248.641C137.143 251.981 132.883 254.374 128.233 255.59C123.582 256.806 118.696 256.804 114.046 255.585C109.396 254.365 105.138 251.969 101.682 248.627C98.2268 245.285 95.69 241.109 94.3163 236.502C92.9426 231.895 92.7781 227.012 93.8388 222.323C93.9898 221.653 94.1888 220.923 94.4468 220.102C94.9454 218.507 94.9317 216.795 94.4076 215.208C93.8835 213.62 92.8754 212.237 91.5248 211.252C87.1042 208.033 83.723 203.59 81.7984 198.472C79.8738 193.353 79.4902 187.783 80.6948 182.449V182.449Z" fill="black"/>
<path d="M288 232C288 227.253 286.592 222.613 283.955 218.666C281.318 214.72 277.57 211.643 273.184 209.827C268.799 208.01 263.973 207.535 259.318 208.461C254.662 209.387 250.386 211.673 247.029 215.029C243.673 218.386 241.387 222.662 240.461 227.318C239.535 231.973 240.01 236.799 241.827 241.184C243.643 245.57 246.72 249.318 250.666 251.955C254.613 254.592 259.253 256 264 256C270.363 255.993 276.463 253.462 280.963 248.963C285.462 244.463 287.993 238.363 288 232V232ZM256 232C256 230.418 256.469 228.871 257.348 227.555C258.227 226.24 259.477 225.214 260.939 224.609C262.4 224.003 264.009 223.845 265.561 224.154C267.113 224.462 268.538 225.224 269.657 226.343C270.776 227.462 271.538 228.887 271.846 230.439C272.155 231.991 271.997 233.6 271.391 235.061C270.786 236.523 269.76 237.773 268.445 238.652C267.129 239.531 265.582 240 264 240C261.879 239.998 259.846 239.154 258.346 237.654C256.846 236.154 256.002 234.121 256 232Z" fill="black"/>
<path d="M256 160C256 164.747 257.408 169.387 260.045 173.334C262.682 177.28 266.43 180.357 270.816 182.173C275.201 183.99 280.027 184.465 284.682 183.539C289.338 182.613 293.614 180.327 296.971 176.971C300.327 173.614 302.613 169.338 303.539 164.682C304.465 160.027 303.99 155.201 302.173 150.816C300.357 146.43 297.28 142.682 293.334 140.045C289.387 137.408 284.747 136 280 136C273.637 136.007 267.537 138.538 263.037 143.037C258.538 147.537 256.007 153.637 256 160ZM288 160C288 161.582 287.531 163.129 286.652 164.445C285.773 165.76 284.523 166.786 283.061 167.391C281.6 167.997 279.991 168.155 278.439 167.846C276.887 167.538 275.462 166.776 274.343 165.657C273.224 164.538 272.462 163.113 272.154 161.561C271.845 160.009 272.003 158.4 272.609 156.939C273.214 155.477 274.24 154.227 275.555 153.348C276.871 152.469 278.418 152 280 152C282.121 152.002 284.154 152.846 285.654 154.346C287.154 155.846 287.998 157.879 288 160V160Z" fill="black"/>
<path d="M296 208C296 212.747 297.408 217.387 300.045 221.334C302.682 225.28 306.43 228.357 310.816 230.173C315.201 231.99 320.027 232.465 324.682 231.539C329.338 230.613 333.614 228.327 336.971 224.971C340.327 221.614 342.613 217.338 343.539 212.682C344.465 208.027 343.99 203.201 342.173 198.816C340.357 194.43 337.28 190.682 333.334 188.045C329.387 185.408 324.747 184 320 184C313.637 184.007 307.537 186.538 303.037 191.037C298.538 195.537 296.007 201.637 296 208V208ZM328 208C328 209.582 327.531 211.129 326.652 212.445C325.773 213.76 324.523 214.786 323.061 215.391C321.6 215.997 319.991 216.155 318.439 215.846C316.887 215.538 315.462 214.776 314.343 213.657C313.224 212.538 312.462 211.113 312.154 209.561C311.845 208.009 312.003 206.4 312.609 204.939C313.214 203.477 314.24 202.227 315.555 201.348C316.871 200.469 318.418 200 320 200C322.121 200.002 324.154 200.846 325.654 202.346C327.154 203.846 327.998 205.879 328 208Z" fill="black"/>
<path d="M328 152C332.747 152 337.387 150.592 341.334 147.955C345.28 145.318 348.357 141.57 350.173 137.184C351.99 132.799 352.465 127.973 351.539 123.318C350.613 118.662 348.327 114.386 344.971 111.029C341.614 107.673 337.338 105.387 332.682 104.461C328.027 103.535 323.201 104.01 318.816 105.827C314.43 107.643 310.682 110.72 308.045 114.666C305.408 118.613 304 123.253 304 128C304.007 134.363 306.538 140.463 311.037 144.963C315.537 149.462 321.637 151.993 328 152ZM328 120C329.582 120 331.129 120.469 332.445 121.348C333.76 122.227 334.786 123.477 335.391 124.939C335.997 126.4 336.155 128.009 335.846 129.561C335.538 131.113 334.776 132.538 333.657 133.657C332.538 134.776 331.113 135.538 329.561 135.846C328.009 136.155 326.4 135.997 324.939 135.391C323.477 134.786 322.227 133.76 321.348 132.445C320.469 131.129 320 129.582 320 128C320.002 125.879 320.846 123.846 322.346 122.346C323.846 120.846 325.879 120.002 328 120Z" fill="black"/>
<path d="M272 120C276.747 120 281.387 118.592 285.334 115.955C289.28 113.318 292.357 109.57 294.173 105.184C295.99 100.799 296.465 95.9734 295.539 91.3178C294.613 86.6623 292.327 82.3859 288.971 79.0294C285.614 75.673 281.338 73.3872 276.682 72.4612C272.027 71.5351 267.201 72.0104 262.816 73.8269C258.43 75.6434 254.682 78.7195 252.045 82.6663C249.408 86.6131 248 91.2533 248 96C248.007 102.363 250.538 108.463 255.037 112.963C259.537 117.462 265.637 119.993 272 120V120ZM272 88C273.582 88 275.129 88.4692 276.445 89.3483C277.76 90.2273 278.786 91.4767 279.391 92.9385C279.997 94.4004 280.155 96.0089 279.846 97.5607C279.538 99.1126 278.776 100.538 277.657 101.657C276.538 102.776 275.113 103.538 273.561 103.846C272.009 104.155 270.4 103.997 268.939 103.391C267.477 102.786 266.227 101.76 265.348 100.445C264.469 99.129 264 97.5823 264 96C264.002 93.879 264.846 91.8456 266.346 90.3458C267.846 88.846 269.879 88.0024 272 88Z" fill="black"/>
<path d="M392.337 153.682C387.459 156.466 383.398 160.482 380.56 165.329C377.722 170.176 376.207 175.683 376.166 181.3L358.535 191.335C357.622 191.854 356.82 192.548 356.175 193.378C355.53 194.207 355.054 195.155 354.776 196.168C354.497 197.182 354.421 198.24 354.551 199.282C354.681 200.325 355.016 201.332 355.535 202.245L374.799 236.084L371.483 263.353C371.227 265.459 371.819 267.581 373.127 269.251C374.435 270.922 376.353 272.004 378.459 272.26L398.598 274.709C401.358 281.19 406.18 286.58 412.315 290.041C418.45 293.503 425.556 294.844 432.531 293.855C439.506 292.867 445.959 289.604 450.891 284.574C455.822 279.544 458.956 273.027 459.806 266.034L463.668 234.268C464.223 229.803 463.824 225.271 462.498 220.972C461.172 216.673 458.95 212.703 455.977 209.326C455.996 203.768 454.557 198.302 451.803 193.474L435.974 165.664C433.896 162.012 431.118 158.805 427.8 156.226C424.482 153.647 420.688 151.747 416.636 150.635C412.584 149.522 408.352 149.218 404.182 149.741C400.012 150.264 395.987 151.603 392.334 153.682H392.337ZM447.903 230.562C447.898 231.155 447.859 231.748 447.788 232.337L443.926 264.1C443.47 267.846 441.704 271.31 438.941 273.88C436.178 276.45 432.595 277.961 428.826 278.145C425.057 278.33 421.344 277.176 418.343 274.888C415.342 272.6 413.247 269.325 412.426 265.642C412.066 264.028 411.215 262.565 409.99 261.455C408.764 260.345 407.225 259.641 405.583 259.442L388.339 257.342L389.565 247.259C389.778 247.159 389.992 247.068 390.197 246.952L407.828 236.916C414.212 240.659 421.697 242.071 429.005 240.912C436.314 239.754 442.995 236.095 447.907 230.561L447.903 230.562ZM422.071 173.579L437.9 201.389C439.768 204.669 440.416 208.504 439.729 212.216C439.042 215.928 437.065 219.277 434.147 221.672C431.23 224.067 427.559 225.354 423.785 225.304C420.01 225.254 416.375 223.871 413.521 221.4C412.27 220.318 410.714 219.65 409.068 219.489C407.422 219.328 405.766 219.681 404.328 220.5L389.228 229.093L373.399 201.279L388.499 192.687C389.937 191.868 391.086 190.624 391.788 189.126C392.489 187.627 392.709 185.948 392.416 184.32C391.749 180.604 392.416 176.773 394.301 173.502C396.186 170.231 399.166 167.732 402.715 166.447C406.265 165.161 410.154 165.172 413.696 166.477C417.238 167.782 420.205 170.298 422.071 173.579V173.579Z" fill="black"/>
</svg>
